<svg width="25" height="32" viewBox="0 0 25 32" fill="none" xmlns="http://www.w3.org/2000/svg">
<path d="M4.04688 1.22461C4.54108 1.22462 5.00591 1.35823 5.43262 1.60742C6.28479 1.90816 7.29931 2.50212 8.45996 3.34961L8.9834 3.74121L8.98535 3.74219C9.3723 4.03984 9.84278 4.37507 10.3984 4.74805L10.9824 5.13379L10.9844 5.13477C13.936 7.0661 17.0739 9.32954 20.3984 11.9229L21.835 13.0537L21.8467 13.0635L22.21 13.3965C22.99 14.1604 23.4922 15.0138 23.4922 15.9561C23.4921 16.8209 23.0081 17.6636 22.3037 18.4561L22.2725 18.4893L21.1562 19.6055C20.7674 19.9943 19.6879 20.8032 18.0166 21.9854L18.0127 21.9873L16.1523 23.29L16.1465 23.2939L11.8047 26.2715L11.8037 26.2705C9.62663 27.7905 7.74357 29.2043 6.15137 30.5107L6.13867 30.5215L6.125 30.5322C5.91371 30.6907 5.66915 30.7687 5.45508 30.8115C5.23356 30.8558 4.9877 30.873 4.72949 30.873C3.79404 30.873 2.96379 30.5538 2.28027 29.9229L2.26953 29.9121L2.25781 29.9014C1.6161 29.2596 1.28715 28.4627 1.28711 27.5547C1.28711 26.883 1.42828 26.2341 1.8457 25.7471L1.90723 25.6758L1.98438 25.6201C4.42689 23.8814 6.99347 22.0811 9.68359 20.2188L9.68555 20.2168C12.3299 18.3967 14.3941 16.9351 15.8867 15.8359C14.3927 14.7525 12.4956 13.4346 10.1895 11.8857L10.1846 11.8818L2.36914 6.54785L2.2666 6.47754L2.19043 6.37891C1.60116 5.60832 1.22461 4.80252 1.22461 3.98438C1.22472 3.19611 1.51759 2.50812 2.10156 1.98242C2.65197 1.48705 3.31056 1.22461 4.04688 1.22461Z" fill="white" stroke="black" stroke-width="1.55064"/>
</svg>
