<svg width="25" height="32" viewBox="0 0 25 32" fill="none" xmlns="http://www.w3.org/2000/svg">
<path d="M20.9531 1.22461C20.4589 1.22462 19.9941 1.35823 19.5674 1.60742C18.7152 1.90816 17.7007 2.50212 16.54 3.34961L16.0166 3.74121L16.0146 3.74219C15.6277 4.03984 15.1572 4.37507 14.6016 4.74805L14.0176 5.13379L14.0156 5.13477C11.064 7.0661 7.92607 9.32954 4.60156 11.9229L3.16504 13.0537L3.15332 13.0635L2.79004 13.3965C2.01003 14.1604 1.50781 15.0138 1.50781 15.9561C1.50793 16.8209 1.99192 17.6636 2.69629 18.4561L2.72754 18.4893L3.84375 19.6055C4.23255 19.9943 5.31214 20.8032 6.9834 21.9854L6.9873 21.9873L8.84766 23.29L8.85352 23.2939L13.1953 26.2715L13.1963 26.2705C15.3734 27.7905 17.2564 29.2043 18.8486 30.5107L18.8613 30.5215L18.875 30.5322C19.0863 30.6907 19.3309 30.7687 19.5449 30.8115C19.7664 30.8558 20.0123 30.873 20.2705 30.873C21.206 30.873 22.0362 30.5538 22.7197 29.9229L22.7305 29.9121L22.7422 29.9014C23.3839 29.2596 23.7129 28.4627 23.7129 27.5547C23.7129 26.883 23.5717 26.2341 23.1543 25.7471L23.0928 25.6758L23.0156 25.6201C20.5731 23.8814 18.0065 22.0811 15.3164 20.2188L15.3145 20.2168C12.6701 18.3967 10.6059 16.9351 9.11328 15.8359C10.6073 14.7525 12.5044 13.4346 14.8105 11.8857L14.8154 11.8818L22.6309 6.54785L22.7334 6.47754L22.8096 6.37891C23.3988 5.60832 23.7754 4.80252 23.7754 3.98438C23.7753 3.19611 23.4824 2.50812 22.8984 1.98242C22.348 1.48705 21.6894 1.22461 20.9531 1.22461Z" fill="white" stroke="black" stroke-width="1.55064"/>
</svg>
