<svg width="12" height="13" viewBox="0 0 12 13" fill="none" xmlns="http://www.w3.org/2000/svg">
<path d="M1.31577 5.52842C1.56562 5.24288 1.85116 5.08227 2.17239 5.04658H5.49177V4.83242L5.43824 2.95858C5.43824 1.15611 5.88439 0.254883 6.7767 0.254883C7.18716 0.254883 7.46377 0.513652 7.60654 1.03119L7.553 5.04658H10.9259C11.4435 5.13581 11.7022 5.37673 11.7022 5.76934C11.7022 6.05488 11.5952 6.3315 11.381 6.59919C11.1669 6.84904 10.9081 7.01858 10.6047 7.10781H7.52624C7.50839 7.19704 7.49947 7.40227 7.49947 7.7235V9.19581C7.49947 11.1589 7.07116 12.1404 6.21454 12.1404C5.66131 12.1404 5.3847 11.8281 5.3847 11.2035C5.3847 9.38319 5.41147 8.01796 5.465 7.10781H1.85116C1.26224 7.10781 0.967773 6.86688 0.967773 6.38504C0.967773 6.0995 1.08377 5.81396 1.31577 5.52842Z" fill="white"/>
</svg>
